<mxfile host="app.diagrams.net" modified="2023-04-04T07:20:05.558Z" agent="Mozilla/5.0 (Macintosh; Intel Mac OS X 10_15_7) AppleWebKit/537.36 (KHTML, like Gecko) Chrome/111.0.0.0 Safari/537.36 Edg/111.0.1661.62" version="21.1.2" etag="im3Mx3dUtuK0cVPtPIxp" type="github">
  <diagram name="第 1 页" id="_9lSAbE0jsU9nbevE7Ff">
    <mxGraphModel>
      <root>
        <mxCell id="0" />
        <mxCell id="1" parent="0" />
      </root>
    </mxGraphModel>
  </diagram>
</mxfile>
